<svg id="Capa_1" enable-background="new 0 0 512 512" height="512" viewBox="0 0 512 512" width="512" xmlns="http://www.w3.org/2000/svg" xmlns:xlink="http://www.w3.org/1999/xlink"><linearGradient id="SVGID_1_" gradientUnits="userSpaceOnUse" x1="256" x2="256" y1="512" y2="0"><stop offset="0" stop-color="#5558ff"/><stop offset="1" stop-color="#00c0ff"/></linearGradient><g><g><path d="m437 0h-362c-41.355 0-75 33.645-75 75v362c0 41.355 33.645 75 75 75h362c41.355 0 75-33.645 75-75v-362c0-41.355-33.645-75-75-75zm45 437c0 24.813-20.187 45-45 45h-362c-24.813 0-45-20.187-45-45v-362c0-24.813 20.187-45 45-45h362c24.813 0 45 20.187 45 45zm-316-136h-15v-226c0-8.284-6.716-15-15-15s-15 6.716-15 15v226h-15c-8.284 0-15 6.716-15 15s6.716 15 15 15h15v46c0 8.284 6.716 15 15 15s15-6.716 15-15v-46h15c8.284 0 15-6.716 15-15s-6.716-15-15-15zm120-181h-15v-45c0-8.284-6.716-15-15-15s-15 6.716-15 15v45h-15c-8.284 0-15 6.716-15 15s6.716 15 15 15h15v227c0 8.284 6.716 15 15 15s15-6.716 15-15v-227h15c8.284 0 15-6.716 15-15s-6.716-15-15-15zm120 181h-15v-226c0-8.284-6.716-15-15-15s-15 6.716-15 15v226h-15c-8.284 0-15 6.716-15 15s6.716 15 15 15h15v46c0 8.284 6.716 15 15 15s15-6.716 15-15v-46h15c8.284 0 15-6.716 15-15s-6.716-15-15-15zm-240 121h-60c-8.284 0-15 6.716-15 15s6.716 15 15 15h60c8.284 0 15-6.716 15-15s-6.716-15-15-15zm120 0h-60c-8.284 0-15 6.716-15 15s6.716 15 15 15h60c8.284 0 15-6.716 15-15s-6.716-15-15-15zm120 0h-60c-8.284 0-15 6.716-15 15s6.716 15 15 15h60c8.284 0 15-6.716 15-15s-6.716-15-15-15z" fill="url(#SVGID_1_)"/></g></g></svg>