<svg id="Capa_1" enable-background="new 0 0 512 512" height="512" viewBox="0 0 512 512" width="512" xmlns="http://www.w3.org/2000/svg"><g><g><path d="m457.5 484.688h31.335l3.665-23.188v-72.5l-8.069-9.56 8.069-15.192v-45.163h-35l6.895 102.415z" fill="#efedef"/><path d="m453 334.596 45.5-1.615c1.657 0 3-1.343 3-3v-5c0-1.727 2.781-.884 2.37-2.482-2.22-8.626-10.051-15-19.37-15h-19c-1.712 0-3.374.215-4.96.62-8.646 2.206-10.54 9.143-10.54 18.477v5c0 1.657 1.343 3 3 3z" fill="#f5de46"/><path d="m451.183 279.5c0 15.464 8.353 25.298 23.817 25.298 12.173 0 22.531-5.066 26.389-15.915 1.043-2.933 1.611-6.092 1.611-9.383 0-15.464-12.536-28-28-28-3.291 0-6.45.568-9.383 1.611-10.849 3.858-14.434 14.216-14.434 26.389z" fill="#f5de46"/><path d="m383.979 21.5h-255.958c-1.727 0-3.403.219-5.001.63-8.626 2.221-9.543 11.661-9.543 20.98l1.651 382.459 288.85-4.069v-380c.001-11.046-8.954-20-19.999-20z" fill="#655e67"/><path d="m293 7.5h-74c-5.523 0-10 4.477-10 10v38l45.09 9.078 48.91-9.078v-38c0-5.523-4.477-10-10-10z" fill="#544f56"/><path d="m403.98 405.5v16l-145.252 15.628-150.708-15.628v-380c0-9.32 6.38-17.15 15-19.37v378.37c0 2.761 2.239 5 5 5z" fill="#544f56"/><path d="m150.798 427.5-3.743-357.197c0-5.523 4.477-10 10-10l1.965-4.803h200.958c5.523 0 10 4.477 10 10v340l-2.85 22z" fill="#efedef"/><path d="m369.98 405.5v22h-227.96v-362c0-5.523 4.477-10 10-10h7v345c0 2.761 2.239 5 5 5z" fill="#e3e0e4"/><path d="m287.357 129.465 4.139-7.466 3.791-22.209c.267-1.562-1.303-2.799-2.76-2.174l-20.74 8.898c-.422.181-.913.051-1.191-.315l-13.032-17.179c-.8-1.055-2.387-1.055-3.187 0l-13.031 17.178c-.278.367-.77.496-1.193.314l-8.925-3.848-8.265-2.25c-1.456-.628-3.028.607-2.764 2.17l3.755 27.72c.163.962.996 1.667 1.972 1.667l59.459-.841c.975-.002 1.808-.704 1.972-1.665z" fill="#f3d332"/><path d="m291.5 122-1.77 10.34c-.16.96-1 1.66-1.97 1.66h-63.58c-.97 0-1.81-.7-1.97-1.67l-5.5-32.57c-.27-1.56 1.31-2.79 2.76-2.17l11.76 5.07 2.98 17.67c.16.97 1 1.67 1.97 1.67z" fill="#ecc52e"/><g><path d="m256 359.197c-66.08 0-131.662-15.389-190.82-44.646-5.526-2.733-8.275-9.311-13.684-12.285-7.26-3.991-12.631-9.387-8.64-16.646 3.99-7.26 9.306-5.29 16.567-1.299 5.871 3.227 15.601 1.678 21.577 4.591 110.924 54.079 239.079 54.078 350.002 0 5.976-2.913 16.679-.043 22.549-3.27 7.259-3.99 11.604-7.282 15.594-.023 3.991 7.26-2.61 9.684-9.869 13.674-5.409 2.974-6.928 12.525-12.455 15.258-59.158 29.257-124.741 44.646-190.821 44.646z" fill="#6a61b2"/></g><path d="m463.569 490.5-207.569-9.445-207.569 9.445v-69h415.138z" fill="#6a61b2"/><path d="m81.193 471.876-8.145-8.595c-.352-.372-.548-.864-.548-1.376v-40.405h-18l-18.31 47.665 18.31 21.335h30 373l15-7.13-15-10.87h-374.855c-.549 0-1.074-.226-1.452-.624z" fill="#5f55ad"/><path d="m463.23 305.99c-5.41 2.98-10.88 5.83-16.41 8.56-7.91-6.37-13.63-15.36-15.82-25.64 5.97-2.91 11.9-5.98 17.77-9.21 7.26-3.99 16.38-1.34 20.37 5.92 4 7.26 1.35 16.38-5.91 20.37z" fill="#5f55ad"/><path d="m492.5 389v-22.5h-20v-45h-15v45 22.5 72.5 21.87h15 20v-21.87h-15c-2.761 0-5-2.239-5-5v-62.5c0-2.761 2.239-5 5-5z" fill="#e3e0e4"/><path d="m19.5 484.688h31.335l3.665-23.188v-72.5l-8.069-9.56 8.069-15.192v-45.163h-35l6.894 102.415z" fill="#efedef"/><path d="m54.5 389v-24.752h-20v-45.168h-15v45.168 24.752 72.5 23.19h15 20v-23.19h-15c-2.761 0-5-2.239-5-5v-62.5c0-2.761 2.239-5 5-5z" fill="#e3e0e4"/><path d="m504.5 327.5v5c0 1.66-1.34 3-3 3h-53c-1.66 0-3-1.34-3-3v-5c0-10.33 7.82-18.83 17.88-19.89-.57 1.87-.88 3.84-.88 5.89v5c0 1.66 1.34 3 3 3h38.08c.6 1.9.92 3.91.92 6z" fill="#f3d332"/><path d="m13 502.321 48 .202c1.105 0 2-.895 2-2l3.5-11.023v-3c0-5.523-4.477-10-10-10h-34l-3.5 3.19c-5.523 0-10 4.477-10 10l2 10.631c0 1.105.895 2 2 2z" fill="#f5de46"/><path d="m66.5 489.5v13c0 1.1-.9 2-2 2h-55c-1.1 0-2-.9-2-2v-16c0-5.52 4.48-10 10-10h5v11c0 1.1.9 2 2 2z" fill="#f3d332"/><path d="m15 334.596 45.5-1.615c1.657 0 3-1.343 3-3v-5c0-1.727 2.781-.884 2.37-2.482-2.22-8.626-10.051-15-19.37-15h-19c-1.712 0-3.374.215-4.96.62-8.646 2.207-10.54 9.144-10.54 18.477v5c0 1.657 1.343 3 3 3z" fill="#f5de46"/><path d="m66.5 327.5v5c0 1.66-1.34 3-3 3h-53c-1.66 0-3-1.34-3-3v-5c0-9.34 6.39-17.18 15.04-19.38-.67 2-1.04 4.15-1.04 6.38v5c0 1.66 1.34 3 3 3h41.37c.41 1.6.63 3.28.63 5z" fill="#f3d332"/><path d="m81 288.91c-2.19 10.28-7.91 19.27-15.82 25.64-5.53-2.73-11-5.58-16.41-8.56-7.26-3.99-9.91-13.11-5.91-20.37 3.99-7.26 13.11-9.91 20.37-5.92 5.87 3.23 11.8 6.3 17.77 9.21z" fill="#5f55ad"/><path d="m13.183 279.5c0 15.464 8.353 25.298 23.817 25.298 12.173 0 22.531-5.066 26.389-15.915 1.043-2.933 1.611-6.092 1.611-9.383 0-15.464-12.536-28-28-28-3.291 0-6.45.568-9.383 1.611-10.849 3.858-14.434 14.216-14.434 26.389z" fill="#f5de46"/><path d="m501.38 288.88c-3.85 10.85-14.21 18.62-26.38 18.62-15.46 0-28-12.54-28-28 0-12.17 7.77-22.53 18.62-26.38-1.05 2.93-1.62 6.09-1.62 9.38 0 15.46 12.54 28 28 28 3.29 0 6.45-.57 9.38-1.62z" fill="#f3d332"/><path d="m63.38 288.88c-3.85 10.85-14.21 18.62-26.38 18.62-15.46 0-28-12.54-28-28 0-12.17 7.77-22.53 18.62-26.38-1.05 2.93-1.62 6.09-1.62 9.38 0 15.46 12.54 28 28 28 3.29 0 6.45-.57 9.38-1.62z" fill="#f3d332"/><path d="m451 502.321 48 .202c1.105 0 2-.895 2-2l3.5-11.023v-3c0-5.523-4.477-10-10-10h-34l-3.5 3.19c-5.523 0-10 4.477-10 10l2 10.631c0 1.105.895 2 2 2z" fill="#f5de46"/><path d="m504.5 489.5v13c0 1.1-.9 2-2 2h-55c-1.1 0-2-.9-2-2v-16c0-5.52 4.48-10 10-10h5v11c0 1.1.9 2 2 2z" fill="#f3d332"/></g><g><path d="m252.204 174v51.128c0 4.142 3.358 7.5 7.5 7.5 4.143 0 7.5-3.358 7.5-7.5v-51.128c0-4.142-3.357-7.5-7.5-7.5-4.142 0-7.5 3.358-7.5 7.5z"/><path d="m211.842 232.628h.058c3.68-.024 6.949-2.382 8.153-5.918l16.694-50.252c1.306-3.931-.822-8.176-4.753-9.482-3.932-1.306-8.176.822-9.482 4.753l-10.801 32.513-11.351-32.702c-1.358-3.914-5.632-5.983-9.545-4.626-3.913 1.358-5.984 5.632-4.626 9.545l17.499 50.412c1.225 3.45 4.497 5.757 8.154 5.757z"/><path d="m304.016 166.5h-14.236c-3.689-.078-7.651 3.265-7.5 7.5v51.128c0 4.142 3.357 7.5 7.5 7.5s7.5-3.358 7.5-7.5v-14.748c2.54-.012 5.145-.023 6.736-.023 12.247 0 22.211-9.837 22.211-21.929s-9.964-21.928-22.211-21.928zm0 28.857c-1.58 0-4.154.01-6.679.022-.012-2.625-.022-5.321-.022-6.951 0-1.391-.006-4.173-.014-6.928h6.715c3.909 0 7.211 3.173 7.211 6.928 0 3.756-3.302 6.929-7.211 6.929z"/><path d="m215.098 135.25c.61 3.609 3.735 6.25 7.395 6.25h66.954c3.655 0 6.778-2.635 7.394-6.238l6.457-37.833c.462-2.708-.594-5.453-2.752-7.153-2.158-1.701-5.075-2.084-7.599-1.001l-19.448 8.344-11.554-15.231c-1.418-1.869-3.629-2.967-5.975-2.967s-4.557 1.098-5.975 2.967l-11.547 15.222-19.383-8.358c-2.523-1.086-5.439-.709-7.601.988-2.161 1.697-3.222 4.439-2.764 7.149zm22.805-21.541c3.169 1.365 6.861.395 8.945-2.354l9.123-12.025 9.122 12.025c2.082 2.744 5.766 3.717 8.933 2.36l12.167-5.22-3.072 18.006h-54.287l-3.044-18.015z"/><path d="m302.298 247h-92.596c-4.142 0-7.5 3.358-7.5 7.5s3.358 7.5 7.5 7.5h92.596c4.143 0 7.5-3.358 7.5-7.5s-3.358-7.5-7.5-7.5z"/><path d="m492.5 402.5c4.143 0 7.5-3.358 7.5-7.5v-52h1.5c5.79 0 10.5-4.71 10.5-10.5v-5c0-9.45-4.792-17.801-12.073-22.753 6.523-6.44 10.573-15.378 10.573-25.247 0-19.575-15.925-35.5-35.5-35.5-18.422 0-33.606 14.105-35.332 32.081-9.266 4.908-18.67 9.422-28.189 13.541v-248.122c0-15.164-12.337-27.5-27.5-27.5h-73.831c-1.627-7.978-8.697-14-17.148-14h-20c-4.143 0-7.5 3.358-7.5 7.5s3.357 7.5 7.5 7.5h20c1.379 0 2.5 1.122 2.5 2.5v30.5h-79v-30.5c0-1.378 1.122-2.5 2.5-2.5h19c4.142 0 7.5-3.358 7.5-7.5s-3.358-7.5-7.5-7.5h-19c-8.451 0-15.521 6.022-17.147 14h-73.831c-15.164 0-27.5 12.336-27.5 27.5v248.122c-9.52-4.119-18.923-8.633-28.189-13.541-1.727-17.976-16.912-32.081-35.333-32.081-19.575 0-35.5 15.925-35.5 35.5 0 9.869 4.051 18.806 10.573 25.247-7.281 4.952-12.073 13.303-12.073 22.753v5c0 5.79 4.71 10.5 10.5 10.5h1.5v126.899c-6.961 2.313-12 8.874-12 16.601v16c0 5.238 4.262 9.5 9.5 9.5h55c5.238 0 9.5-4.262 9.5-9.5v-4.5h364v4.5c0 5.238 4.262 9.5 9.5 9.5h55c5.238 0 9.5-4.262 9.5-9.5v-16c0-7.727-5.04-14.289-12-16.601v-39.899c0-4.142-3.357-7.5-7.5-7.5s-7.5 3.358-7.5 7.5v39h-20v-95h20v21c0 4.142 3.357 7.5 7.5 7.5zm-8-87.5c6.893 0 12.5 5.607 12.5 12.5v.5h-44v-.5c0-6.893 5.607-12.5 12.5-12.5zm-46.147 168h-364.706c-1.256-6.163-5.766-11.147-11.647-13.101v-40.899h46.021 295.957 46.022v40.899c-5.881 1.954-10.391 6.938-11.647 13.101zm-411.353-109h20v95h-20zm77.813-66.341c46.896 18.958 100.236 29.405 151.187 29.253 63.697.027 128.084-15.345 185.744-45.001 1.797 4.798 4.599 9.109 8.156 12.669-59.746 30.827-126.713 47.117-193.9 47.117-9.193 0-18.52-.309-27.72-.917-4.132-.28-7.705 2.855-7.979 6.988-.273 4.133 2.855 7.706 6.989 7.979 9.528.631 19.188.951 28.71.951 35.885 0 71.709-4.494 106.479-13.217v60.519h-212.958v-60.499c13.897 3.48 27.991 6.309 42.263 8.434.375.056.746.083 1.113.083 3.654 0 6.855-2.674 7.409-6.397.609-4.097-2.217-7.913-6.314-8.522-46.214-6.878-90.557-21.195-131.884-42.526 3.553-3.558 6.352-7.866 8.147-12.66 11.342 5.811 22.872 11.06 34.558 15.746zm291.666 35.82v70.521h-19v-64.569c6.376-1.84 12.711-3.825 19-5.952zm-280.958 70.521v-70.495c6.285 2.128 12.619 4.116 19 5.957v64.538zm-52.021-71c5.79 0 10.5-4.71 10.5-10.5v-5c0-.158-.009-.314-.012-.472 8.73 3.993 17.576 7.697 26.533 11.099v75.873h-38.521v-71zm386.5 71h-38.521v-75.888c8.962-3.399 17.81-7.102 26.533-11.084-.003.158-.012.314-.012.473v5c0 5.79 4.71 10.5 10.5 10.5h1.5zm25-155c11.304 0 20.5 9.196 20.5 20.5s-9.196 20.5-20.5 20.5-20.5-9.196-20.5-20.5 9.196-20.5 20.5-20.5zm-164.5-230h73.479c6.893 0 12.5 5.607 12.5 12.5v254.25c-6.291 2.421-12.626 4.673-19 6.758v-82.508c0-4.142-3.357-7.5-7.5-7.5s-7.5 3.358-7.5 7.5v87.088c-69.679 19.746-143.278 19.746-212.957 0v-241.588c0-1.378 1.122-2.5 2.5-2.5h207.957c1.379 0 2.5 1.122 2.5 2.5v119.5c0 4.142 3.357 7.5 7.5 7.5s7.5-3.358 7.5-7.5v-119.5c0-9.649-7.851-17.5-17.5-17.5h-49.479zm-194.979 12.5c0-6.893 5.607-12.5 12.5-12.5h73.479v19h-49.479c-9.649 0-17.5 7.851-17.5 17.5v237.008c-6.374-2.085-12.709-4.337-19-6.758zm-78.521 217.5c11.304 0 20.5 9.196 20.5 20.5s-9.196 20.5-20.5 20.5-20.5-9.196-20.5-20.5 9.196-20.5 20.5-20.5zm9.5 56c6.893 0 12.5 5.607 12.5 12.5v.5h-44v-.5c0-6.893 5.607-12.5 12.5-12.5zm.5 28v16h-20v-16zm12 154h-44v-10.5c0-1.378 1.122-2.5 2.5-2.5h2 35 2c1.378 0 2.5 1.122 2.5 2.5zm438 0h-44v-10.5c0-1.378 1.121-2.5 2.5-2.5h39c1.379 0 2.5 1.122 2.5 2.5zm-32-138v-16h20v16z"/></g></g></svg>